<svg width="34" height="34" viewBox="0 0 34 34" fill="none" xmlns="http://www.w3.org/2000/svg">
<path d="M17 0.333344C26.2167 0.333344 33.6667 7.78334 33.6667 17C33.6667 26.2167 26.2167 33.6667 17 33.6667C7.78337 33.6667 0.333374 26.2167 0.333374 17C0.333374 7.78334 7.78337 0.333344 17 0.333344ZM25.3334 8.66668H21.1667L19.5 7.00001H14.5L12.8334 8.66668H8.66671V12H25.3334V8.66668ZM12 27H22C22.4421 27 22.866 26.8244 23.1786 26.5119C23.4911 26.1993 23.6667 25.7754 23.6667 25.3333V13.6667H10.3334V25.3333C10.3334 25.7754 10.509 26.1993 10.8215 26.5119C11.1341 26.8244 11.558 27 12 27Z" fill="#EA4335"/>
</svg>
