<svg width="34" height="34" viewBox="0 0 34 34" fill="none" xmlns="http://www.w3.org/2000/svg">
<path d="M16.9999 0.333313C14.8112 0.333313 12.644 0.764409 10.6219 1.60199C8.59977 2.43957 6.76245 3.66722 5.21481 5.21487C2.0892 8.34047 0.333252 12.5797 0.333252 17C0.333252 21.4203 2.0892 25.6595 5.21481 28.7851C6.76245 30.3327 8.59977 31.5604 10.6219 32.398C12.644 33.2355 14.8112 33.6666 16.9999 33.6666C21.4202 33.6666 25.6594 31.9107 28.785 28.7851C31.9106 25.6595 33.6666 21.4203 33.6666 17H30.3333C30.3333 20.5362 28.9285 23.9276 26.428 26.4281C23.9275 28.9286 20.5361 30.3333 16.9999 30.3333C13.4637 30.3333 10.0723 28.9286 7.57183 26.4281C5.07134 23.9276 3.66659 20.5362 3.66659 17C3.66659 13.4638 5.07134 10.0724 7.57183 7.57189C10.0723 5.0714 13.4637 3.66665 16.9999 3.66665V0.333313ZM28.2999 1.99998C28 2.00251 27.7129 2.12213 27.4999 2.33331L25.4666 4.34998L29.6333 8.51665L31.6666 6.49998C32.0999 6.06665 32.0999 5.33331 31.6666 4.91665L29.0833 2.33331C28.8666 2.11665 28.5833 1.99998 28.2999 1.99998ZM24.2833 5.53331L11.9999 17.8333V22H16.1666L28.4499 9.69998L24.2833 5.53331Z" fill="black"/>
</svg>
