<svg width="80" height="80" viewBox="0 0 80 80" fill="none" xmlns="http://www.w3.org/2000/svg">
<path d="M36.3956 45.1422L42.5333 80H4.44444C3.2657 80 2.13524 79.5318 1.30175 78.6983C0.468252 77.8648 0 76.7343 0 75.5556V51.5644L36.3956 45.1422ZM75.5556 0C76.7343 0 77.8648 0.468252 78.6983 1.30175C79.5318 2.13524 80 3.2657 80 4.44444V75.5556C80 76.7343 79.5318 77.8648 78.6983 78.6983C77.8648 79.5318 76.7343 80 75.5556 80H51.5644L37.4578 0H75.5556ZM28.4311 0L34.8489 36.3911L0 42.5333V4.44444C0 3.2657 0.468252 2.13524 1.30175 1.30175C2.13524 0.468252 3.2657 0 4.44444 0H28.4311Z" fill="#EA4335"/>
</svg>
